<?xml version='1.0' encoding='utf-8'?>
<svg xmlns="http://www.w3.org/2000/svg" width="91.44mm" height="91.44mm" version="1.1" style="shape-rendering:geometricPrecision; text-rendering:geometricPrecision; image-rendering:optimizeQuality; fill-rule:evenodd; clip-rule:evenodd" viewBox="0 0 9144 9144"> <defs> <style type="text/css">  .fil0 {fill:#F0F0F0} .fil1 {fill:#011627;fill-rule:nonzero}  </style> </defs> <g id="Layer_x0020_1"> <metadata id="CorelCorpID_0Corel-Layer"/> <g id="_2744621441408"> <polygon class="fil0" points="0,0 9144,0 9144,9144 0,9144 "/> <path class="fil1" d="M6299 6777l-3454 0c-48,0 -88,-40 -88,-88l0 -2512 1 -2 0 -7 1 -2 0 -3 1 -1 0 -3 1 -1 0 -2 1 -2 0 -2 1 0 0 -2 1 -1 0 -1 1 -1 0 -2 1 -1 1 -1 0 -2 1 -1 1 -2 0 -1 1 -1 1 -1 0 -1 1 -1 0 -1 1 0 1 -1 0 -1 1 -1 1 -1 0 -1 1 0 0 -1 1 -1 1 -1 1 -1 0 -1 1 0 1 -1 1 -1 1 -1 0 -1 1 0 1 -1 1 -1 1 -1 690 -683 0 -205 1 -2 0 -4c1,-2 1,-3 1,-5 2,-4 3,-8 5,-12 0,-2 1,-4 2,-6 1,-2 2,-3 3,-5 1,-1 2,-3 3,-4 2,-4 6,-8 9,-11l3 -3c4,-4 7,-7 12,-10 1,0 2,-1 3,-2l6 -3 6 -3c3,-1 8,-3 12,-4 1,0 3,-1 4,-1l2 0 2 -1 5 0c1,0 3,0 4,-1l192 0 757 -757c34,-34 90,-34 124,0l757 757 192 0 2 1 7 0 2 1 2 0 2 1 2 0 2 1 2 0 2 1 2 1 3 0 1 1c32,14 54,45 54,82l0 193 690 683 1 1 1 0 0 1 1 0 0 1 1 0 0 1 1 1 1 1 1 1 1 1 1 1 1 1 1 1 1 1 0 1 1 1 1 1 0 1 1 1 1 0 0 1 1 1 0 1 1 1 1 1 0 1 1 1 0 1 1 1 0 1 1 1 0 1 1 1 1 3 0 1c4,10 7,21 7,33l0 2507c0,48 -40,88 -88,88zm-809 -1911l0 -1539 -1836 0 0 1539 918 918 918 -918zm-1603 -77c-49,0 -88,-39 -88,-88 0,-48 39,-88 88,-88l1366 0c49,0 89,40 89,88 0,49 -40,88 -89,88l-1366 0zm-2 -520c-48,0 -88,-39 -88,-88 0,-48 40,-88 88,-88l1367 0c48,0 88,40 88,88 0,49 -40,88 -88,88l-1367 0zm0 -505c-48,0 -88,-40 -88,-89 0,-48 40,-88 88,-88l1367 0c48,0 88,40 88,88 0,49 -40,89 -88,89l-1367 0zm625 2207l-1006 -1006 -2 -1 -568 -569 0 2205 3276 0 0 -2205 -1576 1576c-34,34 -90,34 -124,0zm-1032 -1282l0 -419 -420 0 420 419zm0 -595l0 -414 -419 414 419 0zm524 -944l1140 0 -570 -570 -570 570zm1664 530l0 414 418 0 -418 -414zm0 590l0 419 420 -419 -420 0z"/> </g> </g> </svg>